# xmcd
#
# Track frame offsets: 
#        150
#        22800
#        42600
#        57589
#        84739
#        107089
#        125839
#        144439
#        159889
#        182539
#        196789
#        206539
#        220789
#        232639
#        248539
#        266591
#
# Disc length: 3854 seconds
#
# Revision: 0
# Processed by: cddbd v1.5.2PL0 Copyright (c) Steve Scherf et al.
# Submitted via: ExactAudioCopy v0.95b3
#
DISCID=d40f0c10
DTITLE=Aaron Lordson - Best Of Lordson Vol. 1
DYEAR=2004
DGENRE=Blues
TTITLE0=Green Grass Of Home
TTITLE1=Never Say Goodbye
TTITLE2=I'm In Love With You
TTITLE3=I Can't Stop Loving You
TTITLE4=Maybe I'm Amazed
TTITLE5=Please Don't Leave Me
TTITLE6=Kill Me Softly
TTITLE7=When Love Is True
TTITLE8=Wake Up
TTITLE9=I Love You The Way You Are
TTITLE10=Tenesse Waltz
TTITLE11=First Woman's Qualities
TTITLE12=When The Sun Goes Down
TTITLE13=Sex Me Slow
TTITLE14=How I'm Feeling
TTITLE15=Green Grass Of Home
EXTD=
EXTT0=
EXTT1=
EXTT2=
EXTT3=
EXTT4=
EXTT5=
EXTT6=
EXTT7=
EXTT8=
EXTT9=
EXTT10=
EXTT11=
EXTT12=
EXTT13=
EXTT14=
EXTT15=
PLAYORDER=
